<?xml version="1.0" encoding="UTF-8"?>
<svg id="_레이어_1" data-name="레이어_1" xmlns="http://www.w3.org/2000/svg" version="1.1" viewBox="0 0 186 27.1">
  <!-- Generator: Adobe Illustrator 30.6.0, SVG Export Plug-In . SVG Version: 2.1.4 Build 109)  -->
  <defs>
    <style>
      .st0 {
        fill: #107cbf;
      }

      .st1 {
        fill: #ff4500;
      }
    </style>
  </defs>
  <path class="st0" d="M25.6,20c-.1-.1-.1-.2-.1-.4V7.4c0-.1,0-.2.1-.4.1-.1.2-.1.4-.1h3c.4,0,.6.1.7.4l3.2,5.2v-5.1c0-.1,0-.2.1-.4.1-.1.2-.1.4-.1h3.4c.1,0,.2,0,.4.1.1.1.1.2.1.4v12.2c0,.1,0,.2-.1.4-.1.1-.2.1-.4.1h-3c-.2,0-.4,0-.5-.1-.1-.1-.2-.2-.3-.3l-3.2-4.8v4.7c0,.1,0,.2-.1.4-.1.1-.2.1-.4.1h-3.4c-.1,0-.2,0-.4-.1h0Z"/>
  <path class="st0" d="M39.6,20c-.1-.1-.1-.2-.1-.4V7.4c0-.1,0-.2.1-.4.1-.1.2-.1.4-.1h9.7c.1,0,.2,0,.4.1.1.1.1.2.1.4v2.7c0,.1,0,.2-.1.4-.1.1-.2.1-.4.1h-5.7v1.2h5.3c.1,0,.2,0,.4.1.1.1.1.2.1.4v2.5c0,.1,0,.2-.1.4-.1.1-.2.1-.4.1h-5.3v1.2h5.9c.1,0,.2,0,.4.1.1.1.1.2.1.4v2.7c0,.1,0,.2-.1.4-.1.1-.2.1-.4.1h-9.9c-.1,0-.2,0-.4-.1h0Z"/>
  <path class="st0" d="M52.3,20c-.1-.1-.1-.2-.1-.4V7.4c0-.1,0-.2.1-.4.1-.1.2-.1.4-.1h9.7c.1,0,.2,0,.4.1.1.1.1.2.1.4v2.7c0,.1,0,.2-.1.4-.1.1-.2.1-.4.1h-5.7v1.2h5.3c.1,0,.2,0,.4.1.1.1.1.2.1.4v2.5c0,.1,0,.2-.1.4-.1.1-.2.1-.4.1h-5.3v1.2h5.9c.1,0,.2,0,.4.1.1.1.1.2.1.4v2.7c0,.1,0,.2-.1.4-.1.1-.2.1-.4.1h-9.9c-.1,0-.2,0-.4-.1h0Z"/>
  <path class="st0" d="M65,20c-.1-.1-.1-.2-.1-.4V7.4c0-.1,0-.2.1-.4.1-.1.2-.1.4-.1h5.5c1.2,0,2.2.2,3.2.6.9.4,1.7,1,2.2,1.8.6.8.9,1.7.9,2.8v2.8c0,1.7-.7,3-1.7,3.9-1.1.9-2.6,1.3-4.5,1.3h-5.6c-.1,0-.2,0-.4-.1h0ZM70.9,16.4c.4,0,.8-.1,1.1-.4.2-.2.4-.6.4-1.1v-2.8c0-.5-.2-.9-.5-1.1-.3-.2-.7-.4-1.1-.4h-1.1v5.8h1.2Z"/>
  <path class="st0" d="M81.1,19.8c-.9-.4-1.6-.9-2.1-1.5-.5-.6-.7-1.3-.7-2s0-.2.1-.3c.1-.1.2-.1.3-.1h3.6c.2,0,.3,0,.4,0,.1,0,.2.1.4.2.4.3.8.4,1.4.4s.7,0,1.1-.1c.2-.1.4-.2.4-.4,0-.2-.2-.4-.5-.5-.4-.1-1-.2-1.9-.4-3.2-.4-4.9-1.8-4.9-4.1s.2-1.6.7-2.2c.5-.6,1.2-1.2,2.1-1.5.9-.4,1.9-.6,3-.6s2.2.2,3.1.6c.9.4,1.6.9,2.1,1.5.4.6.7,1.2.7,1.8s0,.2-.1.3c-.1.1-.2.1-.2.1h-3.8c-.2,0-.3,0-.4,0-.1,0-.2-.1-.4-.2-.2-.2-.6-.3-1-.3-.6,0-.9.2-.9.5s.1.4.4.5c.3.1.9.2,1.7.3,1.2.2,2.3.4,3.1.7.7.3,1.3.7,1.7,1.3.4.6.5,1.2.5,2s-.2,1.7-.8,2.3c-.6.7-1.3,1.2-2.2,1.5-.9.4-2.1.6-3.2.6s-2.5-.2-3.4-.6h.1Z"/>
  <path class="st0" d="M92.5,20c-.1-.1-.1-.2-.1-.4V7.4c0-.1,0-.2.1-.4.1-.1.2-.1.4-.1h5.7c1.7,0,3.2.4,4.2,1.2,1,.8,1.6,1.9,1.6,3.5s-.5,2.6-1.5,3.3c-1,.7-2.4,1.1-4.2,1.1h-1.3v3.6c0,.1,0,.2-.1.4-.1.1-.2.1-.4.1h-3.9c-.1,0-.2,0-.4-.1h0ZM98.6,12.6c.2,0,.4,0,.6-.2.2-.2.2-.4.2-.7s0-.6-.2-.7c-.1-.2-.4-.3-.7-.3h-1.3v2.1h1.3Z"/>
  <path class="st0" d="M105.9,20c-.1-.1-.1-.2-.1-.4V7.4c0-.1,0-.2.1-.4.1-.1.2-.1.4-.1h9.7c.1,0,.2,0,.4.1.1.1.1.2.1.4v2.7c0,.1,0,.2-.1.4-.1.1-.2.1-.4.1h-5.7v1.2h5.3c.1,0,.2,0,.4.1.1.1.1.2.1.4v2.5c0,.1,0,.2-.1.4-.1.1-.2.1-.4.1h-5.3v1.2h5.9c.1,0,.2,0,.4.1.1.1.1.2.1.4v2.7c0,.1,0,.2-.1.4-.1.1-.2.1-.4.1h-9.9c-.1,0-.2,0-.4-.1h0Z"/>
  <path class="st0" d="M118.6,20c-.1-.1-.1-.2-.1-.4V7.4c0-.1,0-.2.1-.4.1-.1.2-.1.4-.1h5.6c1.8,0,3.2.4,4.2,1.2,1,.8,1.6,1.9,1.6,3.3s-.2,1.5-.6,2.2c-.4.6-.9,1.1-1.5,1.5l2.4,4.3v.2c0,.1,0,.2-.1.3,0,0-.2.1-.3.1h-3.9c-.2,0-.4,0-.6-.2-.1-.1-.2-.2-.2-.4l-1.6-3.6h-.7v3.6c0,.1,0,.2-.1.4-.1.1-.2.1-.4.1h-3.7c-.1,0-.2,0-.4-.1h0ZM124.6,12.5c.3,0,.5-.1.6-.2.1-.2.2-.4.2-.7s0-.5-.2-.7c-.1-.2-.4-.3-.6-.3h-1.4v2h1.4,0Z"/>
  <path class="st0" d="M134.3,19.8c-.9-.4-1.6-.9-2.1-1.5-.5-.6-.7-1.3-.7-2s0-.2.1-.3c0,0,.2-.1.3-.1h3.6c.2,0,.3,0,.4,0,.1,0,.2.1.4.2.4.3.8.4,1.4.4s.7,0,1.1-.1c.2-.1.4-.2.4-.4,0-.2-.2-.4-.5-.5-.4-.1-1-.2-1.9-.4-3.2-.4-4.9-1.8-4.9-4.1s.2-1.6.7-2.2c.5-.6,1.2-1.2,2.1-1.5.9-.4,1.9-.6,3-.6s2.2.2,3.1.6c.9.4,1.6.9,2.1,1.5.5.6.7,1.2.7,1.8s0,.2-.1.3c0,0-.2.1-.2.1h-3.8c-.2,0-.3,0-.4,0-.1,0-.2-.1-.4-.2-.2-.2-.6-.4-1-.4-.6,0-.9.2-.9.5s.1.4.4.5c.3.1.9.2,1.7.4,1.2.2,2.3.4,3.1.7.7.3,1.3.7,1.7,1.3.4.6.5,1.2.5,2s-.2,1.7-.8,2.3c-.6.7-1.3,1.2-2.2,1.5-.9.4-2.1.6-3.2.6s-2.5-.2-3.4-.6h.1Z"/>
  <path class="st0" d="M144.3,20c0,0-.1-.2-.1-.3h0c0-.1,4.2-12.1,4.2-12.1,0-.2.1-.3.3-.4.2-.1.3-.2.6-.2h4.1c.2,0,.4,0,.6.2.1.1.2.2.3.4l4.2,12h0c0,.2,0,.3-.1.4,0,0-.2.1-.3.1h-3.5c-.4,0-.6-.1-.7-.5l-.4-1.2h-4.1l-.4,1.2c-.1.3-.4.5-.7.5h-3.5c-.1,0-.2,0-.3-.1ZM152.4,14.8l-1.1-3.5-1.1,3.5h2.1Z"/>
  <path class="st0" d="M159.7,20c-.1-.1-.1-.2-.1-.4V7.4c0-.1,0-.2.1-.4.1-.1.2-.1.4-.1h3c.4,0,.6.1.7.4l3.2,5.2v-5.1c0-.1,0-.2.1-.4.1-.1.2-.1.4-.1h3.4c.1,0,.2,0,.4.1.1.1.1.2.1.4v12.2c0,.1,0,.2-.1.4-.1.1-.2.1-.4.1h-3c-.2,0-.4,0-.5-.1-.1-.1-.2-.2-.3-.3l-3.2-4.8v4.7c0,.1,0,.2-.1.4-.1.1-.2.1-.4.1h-3.4c-.1,0-.2,0-.4-.1h0Z"/>
  <path class="st0" d="M173.8,20c-.1-.1-.1-.2-.1-.4V7.4c0-.1,0-.2.1-.4.1-.1.2-.1.4-.1h5.5c1.2,0,2.2.2,3.2.6.9.4,1.7,1,2.2,1.8.6.8.9,1.7.9,2.8v2.8c0,1.7-.7,3-1.8,3.9-1.1.9-2.6,1.3-4.5,1.3h-5.6c-.1,0-.2,0-.4-.1h0ZM179.6,16.4c.4,0,.8-.1,1.1-.4s.4-.6.4-1.1v-2.8c0-.5-.2-.9-.5-1.1-.3-.2-.7-.4-1.1-.4h-1.1v5.8h1.2Z"/>
  <path class="st1" d="M0,19.2c-.2,1.8.2,3.5,1.2,4.9.1.1.2.3.3.4,1.1,1.3,2.6,2.2,4.4,2.5,1.8.2,3.6-.2,4.4-.7L2,15.3c-.7.6-1.7,2.2-1.9,4Z"/>
  <path class="st1" d="M17.3,21.8l-8.5-11.1c-.5.1-1,.2-1.5.1-1.9-.2-3.2-2-3-4,.2-1.9,2.1-3.2,4-3,1.9.2,3.2,2,3,4-.1.7-.4,1.4-1,2l2.6,3.3c1.1-.9,2.1-2.5,2.3-4.5.2-2-.2-3.8-1.3-5.4-.1-.2-.2-.3-.4-.5C12.3,1.3,10.6.3,8.7,0c-1.9-.2-3.9.2-5.4,1.3-.2.1-.3.2-.5.4C1.4,2.9.4,4.6.1,6.5c-.2,2,.2,3.8,1.2,5.3,0,0,7.4,9.8,10.6,14,1.1,1.5,3.2,1.8,4.7.7,1.5-1.1,1.7-3.2.6-4.6h0Z"/>
  <path class="st1" d="M7.6,5.7c-.7,0-1.2.6-1.4,1.2-.1.8.4,1.5,1.2,1.7.8.1,1.6-.4,1.7-1.2,0-.2,0-.6-.1-.7-.2,0-.4.1-.6,0-.5,0-.9-.5-.9-1h0Z"/>
  <path class="st1" d="M17.9,19.7c1.3-1.2,1.6-3.3.4-4.8-1.1-1.5-3.2-1.9-4.8-.9l4.4,5.8Z"/>
  <path class="st0" d="M147.4,24.5h-.4c0-.4-.4-.6-.9-.6s-.8.2-.8.5.3.5,1.1.7c.8.2,1.2.5,1.2,1s-.6,1-1.4,1-1.4-.4-1.4-1.1h.4c0,.4.4.7,1,.7s.9-.2.9-.6-.3-.6-1.1-.7c-.7-.2-1.2-.4-1.2-1s.6-.9,1.3-.9,1.3.4,1.4,1h0Z"/>
  <path class="st0" d="M150,25.4c0-1.1.7-1.8,1.8-1.8s1.8.7,1.8,1.8-.7,1.8-1.8,1.8-1.8-.7-1.8-1.8ZM153.1,25.4c0-.8-.6-1.4-1.4-1.4s-1.4.6-1.4,1.4.6,1.4,1.4,1.4,1.4-.6,1.4-1.4Z"/>
  <path class="st0" d="M156.8,26.7h1.9v.4h-2.3v-3.4h.4v3Z"/>
  <path class="st0" d="M161.6,23.6v1.9c0,.7.4,1.1,1.1,1.1s1.1-.4,1.1-1.1v-1.9h.4v1.9c0,.9-.6,1.5-1.5,1.5s-1.5-.6-1.5-1.5v-1.9h.4Z"/>
  <path class="st0" d="M168.4,24.1v3h-.4v-3h-1.2v-.4h2.9v.4h-1.2Z"/>
  <path class="st0" d="M172.7,27h-.4v-3.4h.4v3.4Z"/>
  <path class="st0" d="M175.5,25.4c0-1.1.7-1.8,1.8-1.8s1.8.7,1.8,1.8-.7,1.8-1.8,1.8-1.8-.7-1.8-1.8ZM178.7,25.4c0-.8-.6-1.4-1.4-1.4s-1.4.6-1.4,1.4.6,1.4,1.4,1.4,1.4-.6,1.4-1.4Z"/>
  <path class="st0" d="M182.2,23.6l2.1,2.7v-2.7h.4v3.4h-.4l-2.1-2.7v2.7h-.4v-3.4h.4Z"/>
</svg>